0
SECTION
2
HEADER
9
$INSUNITS
70
4
9
$ACADVER
1
AC1014
9
$HANDSEED
5
FFFF
0
ENDSEC
0
SECTION
2
TABLES
0
TABLE
2
VPORT
5
8
100
AcDbSymbolTable
0
ENDTAB
0
TABLE
2
LTYPE
5
5
100
AcDbSymbolTable
0
LTYPE
5
14
100
AcDbSymbolTableRecord
100
AcDbLinetypeTableRecord
2
BYBLOCK
70
0
0
LTYPE
5
15
100
AcDbSymbolTableRecord
100
AcDbLinetypeTableRecord
2
BYLAYER
70
0
0
LTYPE
5
16
100
AcDbSymbolTableRecord
100
AcDbLinetypeTableRecord
2
DASHED
70
0
3
Dashed __ __ __ __ __ __ __ __ __ __ __ __ __ _
72
65
73
2
40
0.75
49
0.5
74
0
49
-0.25
74
0
0
ENDTAB
0
TABLE
2
LAYER
5
2
100
AcDbSymbolTable
70
2
0
LAYER
5
50
100
AcDbSymbolTableRecord
100
AcDbLayerTableRecord
2
0
70
0
62
7
6
CONTINUOUS
0
ENDTAB
0
TABLE
2
STYLE
5
3
100
AcDbSymbolTable
70
1
0
STYLE
5
11
100
AcDbSymbolTableRecord
100
AcDbTextStyleTableRecord
2
STANDARD
70
0
0
ENDTAB
0
TABLE
2
VIEW
5
6
100
AcDbSymbolTable
70
0
0
ENDTAB
0
TABLE
2
UCS
5
7
100
AcDbSymbolTable
70
0
0
ENDTAB
0
TABLE
2
APPID
5
9
100
AcDbSymbolTable
70
2
0
APPID
5
12
100
AcDbSymbolTableRecord
100
AcDbRegAppTableRecord
2
ACAD
70
0
0
ENDTAB
0
TABLE
2
DIMSTYLE
5
A
100
AcDbSymbolTable
70
1
0
ENDTAB
0
TABLE
2
BLOCK_RECORD
5
1
100
AcDbSymbolTable
70
1
0
BLOCK_RECORD
5
1F
100
AcDbSymbolTableRecord
100
AcDbBlockTableRecord
2
*MODEL_SPACE
0
BLOCK_RECORD
5
1B
100
AcDbSymbolTableRecord
100
AcDbBlockTableRecord
2
*PAPER_SPACE
0
ENDTAB
0
ENDSEC
0
SECTION
2
BLOCKS
0
BLOCK
5
20
100
AcDbEntity
100
AcDbBlockBegin
2
*MODEL_SPACE
0
ENDBLK
5
21
100
AcDbEntity
100
AcDbBlockEnd
0
BLOCK
5
1C
100
AcDbEntity
100
AcDbBlockBegin
2
*PAPER_SPACE
0
ENDBLK
5
1D
100
AcDbEntity
100
AcDbBlockEnd
0
ENDSEC
0
SECTION
2
ENTITIES
0
LWPOLYLINE
5
100
100
AcDbEntity
8
0
100
AcDbPolyline
90
342
70
1
43
0.0
10
81.896008333568332
20
-5.1740227758258106
10
80.390796847613032
20
-4.4324531938989082
42
-0.55940691003807219
10
80.512898657692972
20
-0.0029742823810102736
10
82.056677120153324
20
0.65454767248775914
42
0.30589570322413817
10
82.664635946808147
20
1.5938518694277892
42
0.0041392039514193905
10
82.62691822771076
20
2.9622262221522764
42
0.30589570322403825
10
81.968140073571448
20
3.8666142212570942
10
80.390485451378012
20
4.438097340310291
42
-0.55940691003806919
10
80.024567091185631
20
8.8541245179078913
10
81.486643043488073
20
9.6774840821262771
42
0.30589570322413212
10
81.987580788168913
20
10.677967807756412
42
0.0041392039514160373
10
81.799559561882432
20
12.033887795806127
42
0.30589570322414172
10
81.045289630066549
20
12.860315759548362
10
79.414342461600839
20
13.254775384814101
42
-0.55940691003806997
10
78.564845684342743
20
17.603746240664321
10
79.927471505006864
20
18.582948944475127
42
0.3058957032241299
10
80.315307462081492
20
19.632467681657392
42
0.0041392039514160373
10
79.97926505159279
20
20.959474273155742
42
0.3058957032241319
10
79.138659157311366
20
21.697910485564115
10
77.474216931859019
20
21.910558411540823
42
-0.55940691003807241
10
76.151453477652268
20
26.139682330725705
10
77.398088735077067
20
27.262841979767799
42
0.30589570322413134
10
77.668115101403117
20
28.348655992748562
42
0.0041392039514227437
10
77.188130606360389
20
29.630641125285486
42
0.30589570322413034
10
76.271392566455162
20
30.272121971053597
10
74.593659357919904
20
30.300376939980453
42
-0.55940691003807008
10
72.813685783235741
20
34.35831808704414
10
73.92919801413295
20
35.611801044650548
42
0.30589570322413367
10
74.078137035410649
20
36.720730022194871
42
0.0041392039514160373
10
73.460036817379489
20
37.942132132884375
42
0.30589570322414866
10
72.478294589808584
20
38.478870903517645
10
70.807635806624461
20
38.322389938347065
42
-0.55940691003807275
10
68.592058579443417
20
42.159890404796997
10
69.562906976442875
20
43.52848108587537
42
0.30589570322413029
10
69.588950734712043
20
44.647064132390845
42
0.0041392039514160373
10
68.840237693038603
20
45.793057054164393
42
0.30589570322414344
10
67.805408298541494
20
46.218538468072865
10
66.162103475201974
20
45.879221035747292
42
-0.55940691003807164
10
63.537816701761606
20
49.449698764336631
10
64.352216480469792
20
50.916784331960763
42
0.30589570322413284
10
64.255048839784891
20
52.03144336453547
42
0.0041392039514210671
10
63.384811336561484
20
53.088116295725854
42
0.30589570322413978
10
62.309456202170381
20
53.397175584917107
10
60.713452833151074
20
52.879140539413385
42
-0.55940691003807086
10
57.712311799927853
20
56.139254767214354
10
58.360377250246465
20
57.687026789960058
42
0.30589570322412712
10
58.141177694138591
20
58.784231357895649
42
0.0041392039514244203
10
57.159979233799376
20
59.738757720525363
42
0.30589570322413151
10
56.057151714131095
20
59.927643323891395
10
54.527823118328477
20
59.237178908913052
42
-0.55940691003807452
10
51.186257612012334
20
62.147356265467963
10
51.660122097267227
20
63.757026887646653
42
0.30589570322412796
10
51.321551411411988
20
64.82345841380112
42
0.0041392039514227437
10
50.241302414098818
20
65.66425155086344
42
0.30589570322412746
10
49.12438934131238
20
65.730670653050623
10
47.680299496196042
20
64.876158171267647
42
-0.55940691003807164
10
44.038871595429107
20
67.401073045698595
10
44.332783042683097
20
69.053103046474632
42
0.30589570322412718
10
43.878951016566738
20
70.075816496746867
42
0.0041392039514193905
10
42.712764241762954
20
70.792670318526518
42
0.3058957032241163
10
41.595323427551428
20
70.735816681607957
10
40.254001627625165
20
69.727628756995898
42
-0.5594069100380743
10
36.356913334313752
20
71.836632103067643
10
36.467304056740197
20
73.510968076130737
42
0.30589570322412957
10
35.903719596382622
20
74.477549094638817
42
0.0041392039514244203
10
34.66575097177595
20
75.061761966815169
42
0.30589570322413423
10
33.561346633898367
20
74.882325716927198
10
32.3390747088106
20
73.732700385163284
42
-0.55940691003806997
10
28.233631395699842
20
75.400191759186143
10
28.159161399467706
20
77.076509533938932
42
0.30589570322413312
10
27.492665656765904
20
77.975225136483488
42
0.0041392039514244203
10
26.197942444462299
20
78.419705506184158
42
0.30589570322414494
10
25.119980555514751
20
78.119864756329534
10
24.031595230702635
20
76.842756911617641
42
-0.55940691003807541
10
19.767631418232774
20
78.048495227154703
10
19.509204668216601
20
79.70644657661191
42
0.30589570322413057
10
18.74788799862791
20
80.526387573210428
42
0.004139203951426096
10
17.412126384546095
20
80.825740050856325
42
0.30589570322413068
10
16.373691941614609
20
80.409134461563241
10
15.432404740555523
20
79.020046463122071
42
-0.55940691003807164
10
11.061679173291504
20
79.749395690359052
10
10.622432620162323
20
81.368855331058711
42
0.30589570322413207
10
9.7755363767486951
20
82.100068748734117
42
0.004139203951426096
10
8.4149506974130475
20
82.250659600760144
42
0.30589570322412796
10
7.4286488879341928
20
81.722346199533746
10
6.6458857621475511
20
80.238139693955887
42
-0.55940691003807064
10
2.2214531277342036
20
80.482246521276807
10
1.6067186296278608
20
82.043556406958956
42
0.30589570322413728
10
0.68452298554824687
20
82.67716630534855
42
0.0041392039514244203
10
-0.68437109199229085
20
82.677167562806915
42
0.30589570322414117
10
-1.6065679001313207
20
82.043559358665817
10
-2.2213052666574811
20
80.482250602369504
42
-0.55940691003807341
10
-6.6457383495336755
20
80.238151903566575
10
-7.4284987485515792
20
81.722359847225533
42
0.30589570322413773
10
-8.414799587417372
20
82.25067506047354
42
0.0041392039514277727
10
-9.7753855434145258
20
82.10008670810042
42
0.30589570322414456
10
-10.622283130203783
20
81.36887484633445
10
-11.061532658585122
20
79.749416012616351
42
-0.55940691003807241
10
-15.432259565793917
20
79.020074815228142
10
-16.373544214834656
20
80.40916454298916
42
0.30589570322413662
10
-17.411977892381323
20
80.825772040081546
42
0.0041392039514294493
10
-18.747740056427862
20
80.526422016482385
42
0.30589570322413306
10
-19.509058232401578
20
79.706482418567546
10
-19.767488028386779
20
78.048531543891812
42
-0.55940691003807197
10
-24.031454056018234
20
76.842801062062904
10
-25.119837034540428
20
78.119910906341829
42
0.30589570322412923
10
-26.197798372622081
20
78.41975363661534
42
0.0041392039514328025
10
-27.492522401517881
20
77.975275645566299
42
0.30589570322413484
10
-28.159019795328696
20
77.076561267501688
10
-28.233492871272759
20
75.400243629567157
42
-0.55940691003807153
10
-32.338939247872879
20
73.732759798021121
10
-33.561209060879918
20
74.882387375327227
42
0.30589570322412923
10
-34.665613069097375
20
75.061825654214061
42
0.0041392039514311259
10
-35.903582767011258
20
74.47761505642066
42
0.30589570322413595
10
-36.467169003159626
20
73.511035073325232
10
-36.356781356804476
20
71.836698897456358
42
-0.5594069100380713
10
-40.253873524746389
20
69.727702711074699
10
-41.595193472438929
20
70.735893099946281
42
0.30589570322413412
10
-42.712634182197732
20
70.79274878981434
42
0.0041392039514328025
10
-43.878822273995297
20
70.075897110541078
42
0.30589570322412213
10
-44.332656179028461
20
69.053184494045638
10
-44.038747766865782
20
67.40115395330163
42
-0.55940691003807308
10
-47.680180306371625
20
64.87624576886509
10
-49.124268581584843
20
65.730760903712138
42
0.30589570322413068
10
-50.24118177639383
20
65.66434385350513
42
0.0041392039514328025
10
-51.321432318400788
20
64.823552701065466
42
0.30589570322412757
10
-51.660004963491389
20
63.757121796931031
10
-51.186143435505983
20
62.147450304176594
42
-0.5594069100380713
10
-54.527714288361381
20
59.237279086712959
10
-56.057041615648011
20
59.927746311355314
42
0.30589570322413362
10
-57.15986948233293
20
59.738862734091846
42
0.0041392039514311259
10
-58.141069696315519
20
58.784338174110538
42
0.30589570322414439
10
-58.36027126819485
20
57.687134008887675
10
-57.712208661426587
20
56.139360795526073
42
-0.55940691003807064
10
-60.71335568408972
20
52.879252081392956
10
-62.309358101378209
20
53.397290059055138
42
0.3058957032241324
10
-63.38471380356772
20
53.088232745494714
42
0.0041392039514344791
10
-64.254953248097223
20
52.03156141309664
42
0.30589570322414428
10
-64.352122936620958
20
50.916902559039059
10
-63.537725853227151
20
49.449815495211325
42
-0.55940691003806942
10
-66.162019186304391
20
45.879342587937998
10
-67.805323386251004
20
46.218663039324042
42
0.30589570322412962
10
-68.840153562435944
20
45.793183526593168
42
0.0041392039514378315
10
-69.588868709513378
20
44.647191980348701
42
0.30589570322413934
10
-69.562827006292395
20
43.528608885987794
10
-68.591981123653866
20
42.160016421280034
42
-0.5594069100380703
10
-70.807565401043618
20
38.322520025270009
10
-72.478223896739877
20
38.479004059755745
42
0.30589570322413195
10
-73.459967110399475
20
37.942267092769129
42
0.0041392039514361557
10
-74.07806957237581
20
36.720866117648384
42
0.30589570322413079
10
-73.929132588410127
20
35.611936866476839
10
-72.813622660399503
20
34.358451859466093
42
-0.55940691003807019
10
-74.593603690284226
20
30.300513982556566
10
-76.271336950726337
20
30.272262095942224
42
0.30589570322413051
10
-77.188076169151373
20
29.630782934395956
42
0.0041392039514328025
10
-77.668063019441945
20
28.348798683683295
42
0.30589570322413351
10
-77.398038647961556
20
27.262984174614967
10
-76.151405453995039
20
26.139822235270568
42
-0.55940691003807064
10
-77.474176677898157
20
21.910700746258893
10
-79.138619294022092
20
21.698055878176952
42
0.30589570322412757
10
-79.979226544948702
20
20.959621210121469
42
0.0041392039514361557
10
-80.315271393398376
20
19.632615235998678
42
0.3058957032241299
10
-79.927437364488384
20
18.58309578629035
10
-78.564813342806673
20
17.603890579080449
42
-0.55940691003807219
10
-79.414318109943409
20
13.254921283923428
10
-81.04526600310308
20
12.860464655016058
42
0.30589570322413095
10
-81.799537453221831
20
12.034038077011452
42
0.0041392039514361557
10
-81.987561170588847
20
10.678118434394516
42
0.30589570322413989
10
-81.486625263986298
20
9.6776337884488779
10
-80.024550824353184
20
8.8542715381224628
42
-0.55940691003807153
10
-80.390477297620151
20
4.4382450327933851
10
-81.968132969733176
20
3.8667648121903837
42
0.30589570322413007
10
-82.626912785402794
20
2.9623780233865284
42
0.0041392039514395081
10
-82.664633018462041
20
1.5940037399592497
42
0.30589570322414872
10
-82.056675917487269
20
0.65469842608568463
10
-80.512898663021389
20
-0.002826364994308328
42
-0.55940691003806753
10
-80.390804990730203
20
-4.4323055008287744
10
-81.896017839086213
20
-5.1738723173969179
42
0.30589570322413079
10
-82.451309325751254
20
-6.1452412864987487
42
0.0041392039514361557
10
-82.338268201970521
20
-7.5094600005844576
42
0.30589570322412812
10
-81.630669682268916
20
-8.3761840882921419
10
-80.023928977583395
20
-8.8598899598686973
42
-0.55940691003807497
10
-79.415297211523225
20
-13.249053849831014
10
-80.829795991158477
20
-14.151705645764165
42
0.30589570322413207
10
-81.274858662388581
20
-15.178265691730381
42
0.0041392039514328025
10
-81.012428347881041
20
-16.521769069305037
42
0.30589570322413551
10
-80.21377769694341
20
-17.30539107451774
10
-78.563577197644463
20
-17.609406492555269
42
-0.55940691003807075
10
-77.475795302980885
20
-21.904976632740233
10
-78.782409914841438
20
-22.957756438000292
42
0.30589570322413184
10
-79.111841312705792
20
-24.027046512487932
42
0.0041392039514361557
10
-78.703207355991992
20
-25.33352624250589
42
0.30589570322411885
10
-77.82319911083988
20
-26.024534055602722
10
-76.149570015568202
20
-26.145168684756449
42
-0.55940691003807019
10
-74.595842190953988
20
-30.295002672595736
10
-75.778712103638938
20
-31.485131166480169
42
0.30589570322412918
10
-75.988513377227036
20
-32.584171536483666
42
0.0041392039514328025
10
-75.438636040991284
20
-33.837768724826667
42
0.30589570322413773
10
-74.487952309630046
20
-34.427774447020752
10
-72.811210208444152
20
-34.363563946308759
42
-0.55940691003807064
10
-70.810396604934624
20
-38.317288418704081
10
-71.855163380061995
20
-39.630319053487931
42
0.30589570322413123
10
-71.942787826116842
20
-40.745768857715007
42
0.0041392039514395081
10
-71.258341876337468
20
-41.931266532684376
42
0.30589570322412551
10
-70.248522671435566
20
-42.413108293751122
10
-68.5890209420688
20
-42.164832091670171
42
-0.55940691003807153
10
-66.165408726436652
20
-45.874454189383798
10
-67.059390310634981
20
-47.294448551839217
42
0.30589570322413107
10
-67.023774287080656
20
-48.412767740694903
42
0.0041392039514378315
10
-66.213067970412922
20
-49.51577556643425
42
0.30589570322412257
10
-65.156371129180485
20
-49.883604460114448
10
-63.534253874606755
20
-49.454276293433985
42
-0.55940691003807219
10
-60.717262416037634
20
-52.874766229386907
10
-61.44960708389435
20
-54.384487511529009
42
0.30589570322413084
10
-61.291182921010055
20
-55.492101204975903
42
0.0041392039514378315
10
-60.364057113926407
20
-56.499230160654754
42
0.30589570322412357
10
-59.273309504576545
20
-56.74858124245339
10
-57.708267030888095
20
-56.143412573533531
42
-0.55940691003806975
10
-54.532090789691303
20
-59.233250233421742
10
-55.093908868998938
20
-60.814372464007995
42
0.30589570322413551
10
-54.81459962151505
20
-61.897835732220926
42
0.0041392039514344791
10
-53.782308375395601
20
-62.796860636610333
42
0.30589570322412002
10
-52.670750196339931
20
-62.924707122174283
10
-51.181779999104663
20
-62.151043878872549
42
-0.55940691003806886
10
-47.684973452285931
20
-64.87272281911001
10
-48.069445232620652
20
-66.506053316106033
42
0.30589570322413173
10
-47.672641336439305
20
-67.552214382707149
42
0.0041392039514361557
10
-46.547715268633141
20
-68.332222291319212
42
0.30589570322412946
10
-45.428839330408792
20
-68.337012297499228
10
-44.034015490808642
20
-67.404245703557265
42
-0.55940691003806797
10
-40.259025132946682
20
-69.724728428693496
10
-40.461483647714509
20
-71.390440772433863
42
0.30589570322413157
10
-39.952001764610543
20
-72.386600659241935
42
0.0041392039514328025
10
-38.748095953715598
20
-73.038123332692876
42
0.30589570322412751
10
-37.635483894543107
20
-72.919798715302576
10
-36.351737684512372
20
-71.839251293611738
42
-0.55940691003807119
10
-32.344386784814162
20
-73.730370286772796
10
-32.362374461903386
20
-75.408244985838223
42
0.30589570322413268
10
-31.746399011775207
20
-76.342311661261377
42
0.0041392039514344791
10
-30.478127243481818
20
-76.857440496871476
42
0.30589570322414339
10
-29.385284666575235
20
-76.617437556479203
10
-28.228199026094959
20
-75.402225688990526
42
-0.55940691003806875
10
-24.037131395981479
20
-76.841025327377125
10
-23.870429889358977
20
-78.510695255830271
42
0.30589570322413306
10
-23.155437979748687
20
-79.3713304157491
42
0.0041392039514311259
10
-21.838195355277325
20
-79.743812447266095
42
0.30589570322412418
10
-20.778387889116644
20
-79.385044494451634
10
-19.762008270432538
20
-78.04991920706675
42
-0.5594069100380703
10
-15.438097793562671
20
-79.018934412118512
10
-15.088730633699008
20
-80.660132038822795
42
0.30589570322413029
10
-14.28340129783556
20
-81.436888738243155
42
0.0041392039514294493
10
-12.933177358263295
20
-81.662202538381919
42
0.30589570322413084
10
-11.919269629834382
20
-81.189024530092482
10
-11.055933504692971
20
-79.75019243519165
42
-0.55940691003806908
10
-6.6516665969315714
20
-80.23766067498201
10
-6.1238746278821852
20
-81.830464083974448
42
0.30589570322413334
10
-5.2379834729749604
20
-82.513913548787897
42
0.0041392039514277727
10
-3.8711681078662261
20
-82.58932411323299
42
0.30589570322412374
10
-2.9154675835164259
20
-82.007479789505297
10
-2.2156546829707811
20
-80.482406359626935
42
-0.55940691003807319
10
2.2155068216000062
20
-80.482410430066864
10
2.9153169202967923
20
-82.007485145630994
42
0.30589570322412907
10
3.8710163756871898
20
-82.589331225159867
42
0.0041392039514311259
10
5.2378318793370546
20
-82.513923171812692
42
0.30589570322412524
10
6.1237242898683881
20
-81.830475334549604
10
6.6515191851973068
20
-80.237672895213294
42
-0.55940691003806753
10
11.055786988522406
20
-79.750212746893098
10
11.919120470256326
20
-81.189046427902895
42
0.3058957032241329
10
12.933027329366261
20
-81.662226298931301
42
0.0041392039514294493
10
14.28325168288028
20
-81.436914979409096
42
0.30589570322412574
10
15.088582445790951
20
-80.660159759531993
10
15.437952620843756
20
-79.018962774683871
42
-0.55940691003806853
10
19.761864877970098
20
-78.049955513473179
10
20.778242043775414
20
-79.38508266813696
42
0.30589570322413057
10
21.838048850809901
20
-79.74385256801709
42
0.004139203951426096
10
23.155292159598826
20
-79.371372956523999
42
0.30589570322412596
10
23.870285650357065
20
-78.510739110181689
10
24.036990224477993
20
-76.841069487993465
42
-0.55940691003807241
10
28.228060497930848
20
-75.402277549391357
10
29.385143905835648
20
-76.617491542662663
42
0.30589570322413068
10
30.47798604180965
20
-76.857496490812551
42
0.0041392039514244203
10
31.746258756489837
20
-76.342369985257847
42
0.30589570322412624
10
32.362235922673705
20
-75.408304441499439
10
32.344251328156936
20
-73.730429709390066
42
-0.55940691003807153
10
36.351605702190817
20
-71.839318078491956
10
37.635349927049866
20
-72.919867858664972
42
0.3058957032241319
10
38.747961768835843
20
-73.038194520133374
42
0.0041392039514244203
10
39.951868776698767
20
-72.38667405848571
42
0.30589570322412923
10
40.461352489935564
20
-71.390515107693673
10
40.258897035395975
20
-69.724802392001635
42
-0.55940691003807086
10
44.033891656416195
20
-67.40432660223891
10
45.428713782345739
20
-68.337095758733881
42
0.30589570322412918
10
46.54758972936834
20
-68.332307808140115
42
0.0041392039514227437
10
47.672517230194337
20
-67.5523019662308
42
0.30589570322412701
10
48.069323048370293
20
-66.506141628635106
10
47.684854268772526
20
-64.872810425294631
42
-0.55940691003806964
10
51.181665815823145
20
-62.151137909355242
10
52.670634591690522
20
-62.92480388817485
42
0.30589570322413284
10
53.782193005622446
20
-62.796959444753206
42
0.0041392039514193905
10
54.814485903418529
20
-61.89793643687922
42
0.30589570322414322
10
55.093797141428396
20
-60.814473681811862
10
54.531981966941593
20
-59.233350419062454
42
-0.55940691003807064
10
57.708163884747876
20
-56.143518594414552
10
59.273205246624613
20
-56.748690138611707
42
0.3058957032241309
10
60.363953314077641
20
-56.499341060722621
42
0.0041392039514210671
10
61.291080971445659
20
-55.492213808350641
42
0.30589570322414522
10
61.449507169225043
20
-54.38460040596064
10
60.717165275012441
20
-52.874877778365743
42
-0.55940691003807186
10
63.534163017662237
20
-49.454393017763458
10
65.156279483476382
20
-49.883724164578666
42
0.3058957032241329
10
66.212977000478134
20
-49.515897212250543
42
0.0041392039514210671
10
67.023685343578038
20
-48.412890875933542
42
0.30589570322412918
10
67.05930342169566
20
-47.294571752513114
10
66.165324446296424
20
-45.874575747647228
42
-0.55940691003806919
10
68.588943477200232
20
-42.164958102572847
10
70.248444750433961
20
-42.413237353471175
42
0.30589570322413434
10
71.258264840568415
20
-41.931397447633636
42
0.0041392039514193905
10
71.942712968329573
20
-40.745901030122653
42
0.30589570322413329
10
71.855090571566677
20
-39.630451064914816
10
70.810326208726082
20
-38.317418510699468
42
-0.5594069100380693
10
72.811147075970126
20
-34.363697714182948
10
74.487889059186372
20
-34.427911295386465
42
0.30589570322412929
10
75.43857387449782
20
-33.837907319778793
42
0.0041392039514193905
10
75.988453513827267
20
-32.584311141666284
42
0.30589570322411636
10
75.778654259384055
20
-31.485270386220154
10
74.595786533191699
20
-30.295139719182483
42
-0.55940691003807064
10
76.14952198183137
20
-26.145308585841388
10
77.823151298728817
20
-26.0246770314603
42
0.30589570322413512
10
78.703160813391193
20
-25.333670835105785
42
0.0041392039514227437
10
79.11179717035408
20
-24.027191855827851
42
0.30589570322412524
10
78.782367736977918
20
-22.95790117611439
10
77.475755059274718
20
-21.905118970358501
42
-0.55940691003807241
10
78.563544845709373
20
-17.609550828641389
10
80.213745903539206
20
-17.305538442334065
42
0.30589570322413095
10
81.012397994136975
20
-16.521917904394652
42
0.0041392039514193905
10
81.274830776913348
20
-15.178415008956206
42
0.30589570322412735
10
80.829769991668471
20
-14.151854145327629
10
79.415272870377279
20
-13.249199750694833
42
-0.55940691003807075
10
80.023912700158689
20
-8.8600369789113387
10
81.630654293500442
20
-8.376334059221449
42
0.3058957032241319
10
82.33825440553656
20
-7.5096112715072172
42
0.0041392039514160373
10
82.451298035644314
20
-6.1453927651012101
42
0.30589570322411774
0
ENDSEC
0
SECTION
2
OBJECTS
0
DICTIONARY
5
C
100
AcDbDictionary
3
ACAD_GROUP
350
D
3
ACAD_MLINESTYLE
350
17
0
DICTIONARY
5
D
100
AcDbDictionary
0
DICTIONARY
5
1A
330
C
100
AcDbDictionary
0
DICTIONARY
5
17
100
AcDbDictionary
0
ENDSEC
0
EOF
